<svg width="68" height="51" viewBox="0 0 68 51" fill="none" xmlns="http://www.w3.org/2000/svg">
<path d="M58.1545 20.4662C58.8829 22.2138 59.3915 24.0752 59.646 26.0163L58.1485 26.2126C58.2633 27.0888 58.3227 27.983 58.3227 28.8918C58.3227 29.8006 58.2634 30.6948 58.1485 31.5709L59.646 31.7673C59.3915 33.7084 58.8829 35.5698 58.1545 37.3174L56.7604 36.7363C56.0669 38.4003 55.159 39.9542 54.0704 41.3635L55.2658 42.2867C54.0905 43.8084 52.7198 45.1723 51.191 46.3412L50.2737 45.1413C48.8599 46.2223 47.3016 47.1238 45.633 47.8123L46.2091 49.2084C44.4598 49.9302 42.5971 50.434 40.655 50.6861L40.4606 49.1883C39.5837 49.3021 38.6888 49.3609 37.7793 49.3609C36.8699 49.3609 35.9749 49.3021 35.098 49.1883L34.9036 50.6861C32.9615 50.434 31.0988 49.9302 29.3495 49.2084L29.9256 47.8123C28.257 47.1238 26.6987 46.2223 25.285 45.1413L24.3676 46.3412C22.8388 45.1723 21.4681 43.8084 20.2929 42.2867L21.4882 41.3635C20.3997 39.9542 19.4917 38.4003 18.7982 36.7363L17.4041 37.3174C16.6757 35.5698 16.1671 33.7084 15.9126 31.7673L17.4101 31.5709C17.2953 30.6948 17.2359 29.8006 17.2359 28.8918C17.2359 27.983 17.2953 27.0888 17.4101 26.2127L15.9126 26.0163C16.1671 24.0752 16.6757 22.2138 17.4041 20.4662L18.7982 21.0473C19.4917 19.3833 20.3997 17.8294 21.4882 16.4201L20.2928 15.4969C21.4681 13.9752 22.8388 12.6113 24.3676 11.4424L25.285 12.6422C26.6987 11.5613 28.257 10.6598 29.9256 9.97133L29.3495 8.57516C31.0988 7.85343 32.9615 7.34956 34.9036 7.09751L35.098 8.59529C35.9749 8.48148 36.8699 8.42269 37.7793 8.42269C38.6888 8.42269 39.5837 8.48148 40.4606 8.59529L40.655 7.09751C42.5971 7.34956 44.4598 7.85343 46.2091 8.57516L45.633 9.97133C47.3016 10.6598 48.8599 11.5613 50.2737 12.6422L51.191 11.4424C52.7198 12.6113 54.0905 13.9752 55.2658 15.4969L54.0704 16.4201C55.159 17.8294 56.0669 19.3833 56.7604 21.0473L58.1545 20.4662Z" stroke="white" stroke-width="3.02067" stroke-dasharray="5.56 5.56"/>
<ellipse cx="12.8541" cy="30" rx="12.0406" ry="12" fill="white"/>
<g clip-path="url(#clip0_128_345)">
<path d="M6.73064 30.6943L6.38169 30.4044C5.21852 29.3031 4.4043 28.6076 4.4043 27.7382C4.4043 27.0426 4.98588 26.463 5.68379 26.463C6.0909 26.463 6.49801 26.6369 6.73064 26.9267C6.96327 26.6369 7.37038 26.463 7.77749 26.463C8.4754 26.463 9.05698 26.9846 9.05698 27.7382C9.05698 28.6076 8.24276 29.3031 7.07959 30.4044L6.73064 30.6943ZM12.5465 24.3184C11.9295 24.3184 11.3378 24.5626 10.9015 24.9974C10.4652 25.4322 10.2202 26.022 10.2202 26.6369C10.2202 27.2518 10.4652 27.8415 10.9015 28.2763C11.3378 28.7111 11.9295 28.9554 12.5465 28.9554C13.1635 28.9554 13.7552 28.7111 14.1915 28.2763C14.6277 27.8415 14.8728 27.2518 14.8728 26.6369C14.8728 26.022 14.6277 25.4322 14.1915 24.9974C13.7552 24.5626 13.1635 24.3184 12.5465 24.3184ZM12.5465 27.8541C12.2226 27.8541 11.9119 27.7258 11.6829 27.4976C11.4538 27.2693 11.3252 26.9597 11.3252 26.6369C11.3252 26.314 11.4538 26.0044 11.6829 25.7762C11.9119 25.5479 12.2226 25.4197 12.5465 25.4197C12.7069 25.4197 12.8657 25.4511 13.0139 25.5123C13.1621 25.5735 13.2967 25.6631 13.4101 25.7762C13.5235 25.8892 13.6135 26.0234 13.6749 26.1711C13.7362 26.3187 13.7678 26.477 13.7678 26.6369C13.7678 26.7967 13.7362 26.955 13.6749 27.1027C13.6135 27.2504 13.5235 27.3845 13.4101 27.4976C13.2967 27.6106 13.1621 27.7003 13.0139 27.7614C12.8657 27.8226 12.7069 27.8541 12.5465 27.8541ZM12.5465 29.535C10.9937 29.535 7.89381 30.3059 7.89381 31.8535V33.5924H17.1992V31.8535C17.1992 30.3059 14.0993 29.535 12.5465 29.535ZM16.0942 32.4911H8.99882V31.8535C8.99882 31.4825 10.8017 30.6363 12.5465 30.6363C14.2738 30.6363 16.0942 31.4825 16.0942 31.8535V32.4911Z" fill="#003763"/>
</g>
<ellipse cx="55.2875" cy="12" rx="12.0404" ry="12" fill="white"/>
<path d="M51.5249 17.3496V14.6621C50.9291 14.1204 50.4667 13.4875 50.1377 12.7634C49.8087 12.0392 49.644 11.2763 49.6436 10.4746C49.6436 8.91211 50.1923 7.58398 51.2897 6.49023C52.3871 5.39648 53.7197 4.84961 55.2875 4.84961C56.594 4.84961 57.7516 5.23253 58.7604 5.99836C59.7692 6.76419 60.425 7.76148 60.7277 8.99023L61.5429 12.1934C61.5951 12.3913 61.5586 12.5711 61.4331 12.7327C61.3077 12.8944 61.1405 12.975 60.9315 12.9746H59.6772V14.8496C59.6772 15.1934 59.5543 15.4877 59.3085 15.7327C59.0627 15.9777 58.7675 16.1 58.423 16.0996H57.1688V17.3496H51.5249ZM55.2875 7.97461C55.1098 7.97461 54.9608 8.03461 54.8404 8.15461C54.72 8.27461 54.66 8.42294 54.6604 8.59961V11.7246C54.6604 11.9017 54.7206 12.0502 54.841 12.1702C54.9614 12.2902 55.1102 12.35 55.2875 12.3496C55.4652 12.3496 55.6142 12.2896 55.7346 12.1696C55.855 12.0496 55.915 11.9013 55.9146 11.7246V8.59961C55.9146 8.42253 55.8544 8.27398 55.734 8.15398C55.6136 8.03398 55.4648 7.97419 55.2875 7.97461ZM57.1688 8.59961C56.9911 8.59961 56.8421 8.65961 56.7217 8.77961C56.6013 8.89961 56.5413 9.04794 56.5417 9.22461V10.7871C56.5417 10.9642 56.6019 11.1127 56.7223 11.2327C56.8427 11.3527 56.9916 11.4125 57.1688 11.4121C57.3465 11.4121 57.4955 11.3521 57.616 11.2321C57.7364 11.1121 57.7963 10.9638 57.7959 10.7871V9.22461C57.7959 9.04753 57.7357 8.89898 57.6153 8.77898C57.4949 8.65898 57.3461 8.59919 57.1688 8.59961ZM53.4062 8.59961C53.2285 8.59961 53.0795 8.65961 52.9591 8.77961C52.8387 8.89961 52.7787 9.04794 52.7791 9.22461V10.4746C52.7791 10.6517 52.8393 10.8002 52.9597 10.9202C53.0801 11.0402 53.2289 11.1 53.4062 11.0996C53.5839 11.0996 53.7329 11.0396 53.8533 10.9196C53.9737 10.7996 54.0337 10.6513 54.0333 10.4746V9.22461C54.0333 9.04753 53.9731 8.89898 53.8527 8.77898C53.7323 8.65898 53.5835 8.59919 53.4062 8.59961Z" fill="#003763"/>
<defs>
<clipPath id="clip0_128_345">
<rect width="13.9581" height="13.911" fill="white" transform="translate(3.82422 22)"/>
</clipPath>
</defs>
</svg>
