<svg width="51" height="50" viewBox="0 0 51 50" fill="none" xmlns="http://www.w3.org/2000/svg">
<path d="M17.12 36.21H12.0228C8.9725 36.21 6.49414 33.74 6.49414 30.7V17.93C6.49414 14.89 8.9725 12.42 12.0228 12.42H17.12C20.1703 12.42 22.6487 14.89 22.6487 17.93V30.69C22.6487 33.73 20.1703 36.21 17.12 36.21ZM12.0228 15.47C10.6582 15.47 9.54443 16.58 9.54443 17.94V30.7C9.54443 32.06 10.6582 33.17 12.0228 33.17H17.12C18.4846 33.17 19.5984 32.06 19.5984 30.7V17.93C19.5984 16.57 18.4846 15.46 17.12 15.46H12.0228V15.47Z" fill="white"/>
<path d="M21.6753 45.56H34.5186C39.5757 45.56 43.6695 41.48 43.6695 36.44V6.41C43.6695 5.53 42.9571 4.81 42.0641 4.81H14.1298C13.2469 4.81 12.5244 5.52 12.5244 6.41V36.44C12.5244 41.48 16.6182 45.56 21.6753 45.56Z" fill="white"/>
</svg>
