<svg width="24" height="24" viewBox="0 0 24 24" fill="none" xmlns="http://www.w3.org/2000/svg">
<g clip-path="url(#clip0_102_2040)">
<path fill-rule="evenodd" clip-rule="evenodd" d="M12 24C18.6276 24 24 18.6276 24 12C24 5.3724 18.6276 0 12 0C5.3724 0 0 5.3724 0 12C0 18.6276 5.3724 24 12 24ZM18.4452 8.202C18.5013 8.14417 18.5453 8.07562 18.5743 8.00044C18.6034 7.92527 18.617 7.845 18.6144 7.76445C18.6117 7.68389 18.5929 7.6047 18.559 7.53158C18.525 7.45847 18.4767 7.39294 18.4169 7.3389C18.3571 7.28487 18.2871 7.24343 18.2109 7.21708C18.1347 7.19072 18.054 7.17998 17.9736 7.18549C17.8932 7.19101 17.8147 7.21267 17.7429 7.24918C17.671 7.28569 17.6073 7.3363 17.5554 7.398L10.368 15.3402L6.414 11.5656C6.29895 11.4556 6.14493 11.3959 5.98582 11.3995C5.82672 11.4031 5.67556 11.4697 5.5656 11.5848C5.45564 11.6999 5.39589 11.8539 5.39949 12.013C5.40309 12.1721 5.46975 12.3232 5.5848 12.4332L9.9852 16.6332L10.431 17.0592L10.8444 16.602L18.4452 8.202Z" fill="url(#paint0_linear_102_2040)"/>
</g>
<defs>
<linearGradient id="paint0_linear_102_2040" x1="12" y1="0" x2="12" y2="24" gradientUnits="userSpaceOnUse">
<stop offset="0.130208" stop-color="#21A79E"/>
<stop offset="0.796875" stop-color="#4D89BB"/>
</linearGradient>
<clipPath id="clip0_102_2040">
<rect width="24" height="24" fill="white"/>
</clipPath>
</defs>
</svg>
