<svg width="26" height="25" viewBox="0 0 26 25" fill="none" xmlns="http://www.w3.org/2000/svg">
<g clip-path="url(#clip0_164_367)">
<path d="M18.9998 7.75061C19.6628 7.75061 20.2987 7.48722 20.7675 7.01838C21.2364 6.54954 21.4998 5.91365 21.4998 5.25061C21.4998 4.58757 21.2364 3.95168 20.7675 3.48284C20.2987 3.014 19.6628 2.75061 18.9998 2.75061C18.3367 2.75061 17.7008 3.014 17.232 3.48284C16.7631 3.95168 16.4998 4.58757 16.4998 5.25061C16.4998 5.91365 16.7631 6.54954 17.232 7.01838C17.7008 7.48722 18.3367 7.75061 18.9998 7.75061Z" stroke="#003763" stroke-width="2"/>
<path d="M6.99995 8.63563L11.0015 7.24963L16.5 9.87413L11.0015 13.9726L16.5 17.5926L13.004 22.2496M18.66 11.0721L20.001 11.8016L23 8.98363M9.42445 16.0231L7.93945 17.9791L3.00195 20.7491" stroke="#003763" stroke-width="2" stroke-linecap="round" stroke-linejoin="round"/>
</g>
<defs>
<clipPath id="clip0_164_367">
<rect width="25.8462" height="24" fill="white" transform="translate(0 0.25061)"/>
</clipPath>
</defs>
</svg>
