<svg width="26" height="25" viewBox="0 0 26 25" fill="none" xmlns="http://www.w3.org/2000/svg">
<g clip-path="url(#clip0_164_373)">
<path d="M13.1 18.8006L13 18.9006L12.89 18.8006C8.14 14.4906 5 11.6406 5 8.75061C5 6.75061 6.5 5.25061 8.5 5.25061C10.04 5.25061 11.54 6.25061 12.07 7.61061H13.93C14.46 6.25061 15.96 5.25061 17.5 5.25061C19.5 5.25061 21 6.75061 21 8.75061C21 11.6406 17.86 14.4906 13.1 18.8006ZM17.5 3.25061C15.76 3.25061 14.09 4.06061 13 5.33061C11.91 4.06061 10.24 3.25061 8.5 3.25061C5.42 3.25061 3 5.66061 3 8.75061C3 12.5206 6.4 15.6106 11.55 20.2806L13 21.6006L14.45 20.2806C19.6 15.6106 23 12.5206 23 8.75061C23 5.66061 20.58 3.25061 17.5 3.25061Z" fill="#003763"/>
</g>
<defs>
<clipPath id="clip0_164_373">
<rect width="25.8462" height="24" fill="white" transform="translate(0 0.25061)"/>
</clipPath>
</defs>
</svg>
