<svg width="80" height="38" viewBox="0 0 80 38" fill="none" xmlns="http://www.w3.org/2000/svg">
<path d="M78.4995 23.2907C78.1007 24.6466 77.3828 26.1621 76.2661 27.7574C75.1495 29.2729 73.6339 30.7883 71.5601 31.905C69.5661 32.9419 67.0137 33.58 64.3018 33.6598C63.5839 33.6598 62.9458 33.6598 62.2279 33.58C61.5898 33.5003 60.872 33.4205 60.2339 33.261C58.8779 32.9419 57.522 32.4634 56.2458 31.8253C53.6136 30.4693 51.2207 28.3157 48.9076 25.7633C47.2326 23.9288 45.6373 21.8549 44.0421 19.7811C43.4838 20.5787 42.8457 21.3764 42.2873 22.174C41.9683 22.5728 41.5695 23.0514 41.2504 23.4502C41.1707 23.6097 41.0909 23.6895 40.9314 23.849C40.9314 23.849 40.8516 23.9288 40.8516 24.0085C40.6921 24.2478 40.5326 24.4073 40.373 24.5669C41.8088 26.3216 43.2445 28.0764 44.9195 29.7514C47.6314 32.4634 50.7422 34.936 54.2517 36.4515C56.0065 37.1693 57.841 37.6479 59.6755 37.8872C60.5529 37.967 61.4303 38.0467 62.3077 37.967C63.1851 37.967 63.9827 37.8872 64.7803 37.7277C67.9708 37.2491 71.0018 36.1324 73.2351 34.4574C75.5482 32.7824 77.0637 30.7086 77.9411 28.7943C78.8983 26.88 79.2971 25.0454 79.4566 23.6097C79.7757 20.6585 79.4566 19.143 79.4566 19.143C79.3769 18.9835 79.2971 20.5787 78.4995 23.2907Z" fill="white"/>
<path d="M43.4035 18.9037C45.3178 16.4311 47.0726 14.118 48.9071 12.0441C51.2202 9.49172 53.6131 7.33815 56.2453 5.98219C57.5215 5.34409 58.8774 4.78574 60.2334 4.54645C60.8715 4.38693 61.5893 4.30717 62.2274 4.22741C62.9453 4.14764 63.6632 4.14764 64.3013 4.14764C67.0132 4.2274 69.4858 4.78575 71.5596 5.90242C73.6334 6.93934 75.1489 8.45481 76.2656 10.0501C77.3823 11.5655 78.0204 13.1608 78.499 14.5168C79.3764 17.1489 79.3764 18.8239 79.3764 18.8239C79.3764 18.8239 79.6954 17.2287 79.3764 14.3573C79.2168 12.9215 78.818 11.087 77.8609 9.17269C76.9037 7.25839 75.3882 5.18456 73.1549 3.50955C70.9215 1.83453 67.8906 0.717853 64.7001 0.239278C63.9025 0.159515 63.1048 0.0797625 62.2274 0C61.3501 0 60.4727 -1.94745e-05 59.5953 0.0797431C57.7607 0.239268 55.9262 0.717858 54.1714 1.51548C50.6619 3.03097 47.5511 5.42384 44.8392 8.21553C43.0047 10.0501 41.3297 12.1239 39.7344 14.118C38.9368 15.0751 38.1392 16.112 37.4213 17.0692C36.9428 17.7073 36.4642 18.2656 36.0654 18.9037C34.1511 21.3763 32.4761 23.7692 30.6415 25.8431C28.4082 28.3955 25.9355 30.5491 23.3831 31.905C22.1069 32.5431 20.751 33.0217 19.395 33.261C18.7569 33.4205 18.0391 33.5003 17.401 33.5003C16.6831 33.5003 15.9652 33.58 15.3271 33.5003C12.6152 33.4205 10.1426 32.7824 8.06877 31.6657C5.99495 30.549 4.47945 29.1133 3.36277 27.5181C2.2461 26.0026 1.52825 24.4073 1.12944 23.1311C0.331812 20.7383 0.25204 19.143 0.172277 18.9037C0.172277 18.6644 0.331812 17.0692 1.12944 14.6763C1.60801 13.3203 2.2461 11.8049 3.36277 10.2894C4.47945 8.77388 6.07471 7.25838 8.06877 6.1417C10.0628 5.02503 12.6152 4.38694 15.3271 4.30717C16.045 4.30717 16.6831 4.30717 17.401 4.30717C18.1188 4.30717 18.7569 4.46669 19.395 4.54645C20.751 4.78574 22.1069 5.26432 23.3831 5.90242C26.0153 7.25839 28.4082 9.33222 30.6415 11.9644C32.2368 13.7989 33.7523 15.793 35.3475 17.9466C35.6665 17.3085 35.9856 16.7501 36.3844 16.1918C36.7832 15.6334 37.182 15.0751 37.6606 14.5965C37.7404 14.5168 37.8999 14.2775 37.9797 14.1977C37.9797 14.118 38.0594 14.118 38.0594 14.0382C38.2987 13.6394 38.6178 13.4001 38.9368 13.0811C37.5808 11.406 36.2249 9.73102 34.7094 8.13577C31.9975 5.34408 28.8867 2.87144 25.3772 1.43572C23.6224 0.717853 21.7879 0.239268 19.9534 0.0797431C19.076 -1.94745e-05 18.1188 0 17.3212 0C16.4438 0.0797625 15.6462 0.159515 14.8486 0.239278C11.6581 0.717853 8.70687 1.9143 6.47353 3.58931C4.24018 5.26433 2.64491 7.33813 1.76753 9.25244C0.810376 11.1667 0.411565 13.0013 0.172277 14.437C0.0127525 15.8727 0.0127671 16.9894 0.0127671 17.787C0.0127671 18.4251 0.0925344 18.7442 0.0925344 18.9037C0.0925344 18.9835 0.0127671 19.3823 0.0127671 20.0204C0.0127671 20.7382 -0.0670099 21.9347 0.172277 23.3704C0.331802 24.8061 0.810376 26.6407 1.76753 28.555C2.72467 30.4693 4.24018 32.5431 6.47353 34.2181C8.70687 35.8931 11.6581 37.0896 14.8486 37.5681C15.6462 37.7277 16.4438 37.8074 17.3212 37.8074C18.1986 37.8872 19.076 37.8074 19.9534 37.7277C21.7879 37.5681 23.6224 37.0896 25.3772 36.3717C28.9665 34.936 32.0773 32.4633 34.7094 29.6717C36.5439 27.8371 38.1392 25.7633 39.7344 23.6895C40.5321 22.6525 41.2499 21.6954 42.0475 20.7383C42.4464 20.1002 42.9249 19.5418 43.4035 18.9037Z" fill="white"/>
</svg>
