<svg width="24" height="25" viewBox="0 0 24 25" fill="none" xmlns="http://www.w3.org/2000/svg">
<g clip-path="url(#clip0_164_411)">
<path d="M9.5 13.2506C10.2 13.2506 10.7833 12.9963 11.25 12.4876C11.7167 11.9789 12.0417 11.3749 12.225 10.6756L10.775 10.3256C10.6917 10.6923 10.5457 11.0216 10.337 11.3136C10.1283 11.6056 9.84933 11.7513 9.5 11.7506C9.15 11.7506 8.87067 11.6046 8.662 11.3126C8.45333 11.0206 8.30767 10.6916 8.225 10.3256L6.775 10.6756C6.95833 11.3756 7.28333 11.9799 7.75 12.4886C8.21667 12.9973 8.8 13.2513 9.5 13.2506ZM13 18.7506C13.65 18.7506 14.275 18.6046 14.875 18.3126C15.475 18.0206 16.0333 17.5833 16.55 17.0006L15.45 16.0006C15.0833 16.4006 14.6917 16.7049 14.275 16.9136C13.8583 17.1223 13.4333 17.2259 13 17.2246C12.5667 17.2246 12.1417 17.1206 11.725 16.9126C11.3083 16.7046 10.9167 16.4006 10.55 16.0006L9.45 17.0006C9.98333 17.5839 10.546 18.0216 11.138 18.3136C11.73 18.6056 12.3507 18.7513 13 18.7506ZM16.5 13.2506C17.2 13.2506 17.7833 12.9963 18.25 12.4876C18.7167 11.9789 19.0417 11.3749 19.225 10.6756L17.775 10.3256C17.6917 10.6923 17.546 11.0216 17.338 11.3136C17.13 11.6056 16.8507 11.7513 16.5 11.7506C16.15 11.7506 15.8707 11.6046 15.662 11.3126C15.4533 11.0206 15.3077 10.6916 15.225 10.3256L13.775 10.6756C13.9583 11.3756 14.2833 11.9799 14.75 12.4886C15.2167 12.9973 15.8 13.2513 16.5 13.2506ZM13 23.2506C11.6167 23.2506 10.3167 22.9879 9.1 22.4626C7.88333 21.9373 6.825 21.2249 5.925 20.3256C5.025 19.4256 4.31267 18.3673 3.788 17.1506C3.26333 15.9339 3.00067 14.6339 3 13.2506C3 11.8673 3.26267 10.5673 3.788 9.35061C4.31333 8.13394 5.02567 7.07561 5.925 6.17561C6.825 5.27561 7.88333 4.56328 9.1 4.03861C10.3167 3.51394 11.6167 3.25128 13 3.25061C14.3833 3.25061 15.6833 3.51328 16.9 4.03861C18.1167 4.56394 19.175 5.27628 20.075 6.17561C20.975 7.07561 21.6877 8.13394 22.213 9.35061C22.7383 10.5673 23.0007 11.8673 23 13.2506C23 14.6339 22.7373 15.9339 22.212 17.1506C21.6867 18.3673 20.9743 19.4256 20.075 20.3256C19.175 21.2256 18.1167 21.9383 16.9 22.4636C15.6833 22.9889 14.3833 23.2513 13 23.2506ZM13 21.2506C15.2333 21.2506 17.125 20.4756 18.675 18.9256C20.225 17.3756 21 15.4839 21 13.2506C21 11.0173 20.225 9.12561 18.675 7.57561C17.125 6.02561 15.2333 5.25061 13 5.25061C10.7667 5.25061 8.875 6.02561 7.325 7.57561C5.775 9.12561 5 11.0173 5 13.2506C5 15.4839 5.775 17.3756 7.325 18.9256C8.875 20.4756 10.7667 21.2506 13 21.2506Z" fill="#003763"/>
</g>
<defs>
<clipPath id="clip0_164_411">
<rect width="24" height="24" fill="white" transform="translate(0 0.25061)"/>
</clipPath>
</defs>
</svg>
