<svg width="28" height="27" viewBox="0 0 28 27" fill="none" xmlns="http://www.w3.org/2000/svg">
<path d="M12.1334 15.9802L9.26675 13.1135C9.0223 12.869 8.71119 12.7468 8.33342 12.7468C7.95564 12.7468 7.64453 12.869 7.40008 13.1135C7.15564 13.3579 7.03341 13.669 7.03341 14.0468C7.03341 14.4246 7.15564 14.7357 7.40008 14.9802L11.2001 18.7802C11.4667 19.0468 11.7779 19.1802 12.1334 19.1802C12.489 19.1802 12.8001 19.0468 13.0667 18.7802L20.6001 11.2468C20.8445 11.0024 20.9667 10.6913 20.9667 10.3135C20.9667 9.93572 20.8445 9.62461 20.6001 9.38016C20.3556 9.13572 20.0445 9.01349 19.6667 9.01349C19.289 9.01349 18.9779 9.13572 18.7334 9.38016L12.1334 15.9802ZM14.0001 26.9135C12.1556 26.9135 10.4223 26.5633 8.80008 25.8628C7.17786 25.1624 5.76675 24.2126 4.56675 23.0135C3.36675 21.8135 2.41697 20.4024 1.71741 18.7802C1.01786 17.1579 0.667637 15.4246 0.666748 13.5802C0.666748 11.7357 1.01697 10.0024 1.71741 8.38016C2.41786 6.75794 3.36764 5.34683 4.56675 4.14683C5.76675 2.94683 7.17786 1.99705 8.80008 1.29749C10.4223 0.597937 12.1556 0.247715 14.0001 0.246826C15.8445 0.246826 17.5779 0.597049 19.2001 1.29749C20.8223 1.99794 22.2334 2.94772 23.4334 4.14683C24.6334 5.34683 25.5836 6.75794 26.2841 8.38016C26.9845 10.0024 27.3343 11.7357 27.3334 13.5802C27.3334 15.4246 26.9832 17.1579 26.2827 18.7802C25.5823 20.4024 24.6325 21.8135 23.4334 23.0135C22.2334 24.2135 20.8223 25.1637 19.2001 25.8642C17.5779 26.5646 15.8445 26.9144 14.0001 26.9135ZM14.0001 24.2468C16.9779 24.2468 19.5001 23.2135 21.5667 21.1468C23.6334 19.0802 24.6667 16.5579 24.6667 13.5802C24.6667 10.6024 23.6334 8.08016 21.5667 6.01349C19.5001 3.94683 16.9779 2.91349 14.0001 2.91349C11.0223 2.91349 8.50008 3.94683 6.43341 6.01349C4.36675 8.08016 3.33341 10.6024 3.33341 13.5802C3.33341 16.5579 4.36675 19.0802 6.43341 21.1468C8.50008 23.2135 11.0223 24.2468 14.0001 24.2468Z" fill="#003763"/>
</svg>
