<svg width="38" height="34" viewBox="0 0 38 34" fill="none" xmlns="http://www.w3.org/2000/svg">
    <path d="M18.8316 28.2969L9.70108 33.4524C9.29771 33.693 8.87611 33.796 8.43627 33.7613C7.99643 33.7266 7.61164 33.5887 7.2819 33.3476C6.95216 33.1066 6.69577 32.805 6.51272 32.4429C6.32968 32.0808 6.29328 31.6768 6.40354 31.2309L8.82907 21.4773L0.750814 14.9171C0.384462 14.6071 0.15596 14.2539 0.0653109 13.8575C-0.0253387 13.461 0.00203522 13.0743 0.147433 12.6972C0.294298 12.3188 0.514428 12.0093 0.807825 11.7686C1.10122 11.5279 1.50453 11.3734 2.01775 11.3049L12.685 10.4343L16.8146 1.24957C16.9982 0.83677 17.2828 0.527266 17.6685 0.321057C18.0543 0.114847 18.448 0.0118716 18.8498 0.0121304C19.253 0.0123902 19.6466 0.115873 20.0306 0.322578C20.4146 0.529284 20.6989 0.839155 20.8833 1.25219L25.0011 10.4422L35.6672 11.3265C36.1804 11.3957 36.5835 11.5508 36.8766 11.7919C37.1696 12.0329 37.3894 12.3427 37.5358 12.7213C37.6821 13.0999 37.7097 13.4874 37.6186 13.8837C37.5274 14.2801 37.2977 14.6323 36.9295 14.9404L28.8428 21.4902L31.2558 31.2469C31.3655 31.6943 31.3285 32.0989 31.145 32.4608C30.9615 32.8227 30.7047 33.1232 30.3747 33.3625C30.0446 33.6032 29.6597 33.7406 29.2198 33.7747C28.7799 33.8088 28.3584 33.7053 27.9554 33.4642L18.8316 28.2969Z" fill="#003763"/>
</svg>
