<svg width="51" height="51" viewBox="0 0 51 51" fill="none" xmlns="http://www.w3.org/2000/svg">
<circle cx="25.6348" cy="25.7344" r="25" fill="url(#paint0_linear_146_358)"/>
<path d="M26.0386 19.5911C24.8268 19.5911 23.6422 19.9504 22.6346 20.6236C21.6271 21.2969 20.8417 22.2538 20.378 23.3734C19.9143 24.4929 19.7929 25.7249 20.0293 26.9134C20.2657 28.1019 20.8493 29.1936 21.7062 30.0505C22.563 30.9074 23.6548 31.4909 24.8433 31.7273C26.0318 31.9638 27.2638 31.8424 28.3833 31.3787C29.5029 30.9149 30.4598 30.1296 31.133 29.122C31.8063 28.1145 32.1656 26.9299 32.1656 25.7181C32.1639 24.0936 31.5179 22.5361 30.3692 21.3875C29.2205 20.2388 27.6631 19.5927 26.0386 19.5911ZM26.0386 29.8027C25.2307 29.8027 24.441 29.5632 23.7693 29.1143C23.0976 28.6655 22.574 28.0276 22.2649 27.2812C21.9557 26.5348 21.8748 25.7135 22.0324 24.9212C22.19 24.1288 22.5791 23.401 23.1503 22.8298C23.7216 22.2585 24.4494 21.8695 25.2417 21.7119C26.0341 21.5543 26.8554 21.6352 27.6018 21.9443C28.3481 22.2535 28.9861 22.777 29.4349 23.4487C29.8837 24.1205 30.1233 24.9102 30.1233 25.7181C30.1233 26.8014 29.6929 27.8403 28.9269 28.6064C28.1609 29.3724 27.1219 29.8027 26.0386 29.8027ZM32.1656 12.4429H19.9116C18.0164 12.4449 16.1994 13.1987 14.8593 14.5388C13.5192 15.8789 12.7655 17.6959 12.7634 19.5911V31.8451C12.7655 33.7403 13.5192 35.5573 14.8593 36.8974C16.1994 38.2375 18.0164 38.9912 19.9116 38.9933H32.1656C34.0608 38.9912 35.8778 38.2375 37.2179 36.8974C38.558 35.5573 39.3118 33.7403 39.3138 31.8451V19.5911C39.3118 17.6959 38.558 15.8789 37.2179 14.5388C35.8778 13.1987 34.0608 12.4449 32.1656 12.4429ZM37.2715 31.8451C37.2715 33.1992 36.7335 34.4979 35.776 35.4555C34.8185 36.413 33.5198 36.9509 32.1656 36.9509H19.9116C18.5575 36.9509 17.2588 36.413 16.3012 35.4555C15.3437 34.4979 14.8058 33.1992 14.8058 31.8451V19.5911C14.8058 18.2369 15.3437 16.9382 16.3012 15.9807C17.2588 15.0231 18.5575 14.4852 19.9116 14.4852H32.1656C33.5198 14.4852 34.8185 15.0231 35.776 15.9807C36.7335 16.9382 37.2715 18.2369 37.2715 19.5911V31.8451ZM34.208 19.0805C34.208 19.3834 34.1181 19.6796 33.9498 19.9315C33.7815 20.1834 33.5423 20.3797 33.2624 20.4956C32.9825 20.6116 32.6745 20.6419 32.3774 20.5828C32.0803 20.5237 31.8073 20.3778 31.5931 20.1636C31.3789 19.9494 31.233 19.6764 31.1739 19.3793C31.1148 19.0822 31.1451 18.7742 31.2611 18.4943C31.377 18.2144 31.5733 17.9752 31.8252 17.8069C32.0771 17.6385 32.3733 17.5487 32.6762 17.5487C33.0825 17.5487 33.4721 17.7101 33.7593 17.9974C34.0466 18.2846 34.208 18.6742 34.208 19.0805Z" fill="white"/>
<defs>
<linearGradient id="paint0_linear_146_358" x1="25.6348" y1="0.734375" x2="25.6348" y2="50.7344" gradientUnits="userSpaceOnUse">
<stop offset="0.130208" stop-color="#21A79E"/>
<stop offset="0.796875" stop-color="#4D89BB"/>
</linearGradient>
</defs>
</svg>
