<svg width="52" height="60" viewBox="0 0 52 60" fill="none" xmlns="http://www.w3.org/2000/svg">
<path d="M26.3784 4.3375L26.1995 20.5008C26.188 21.5374 27.0192 22.3869 28.0561 22.3982L31.1053 22.4313C32.1421 22.4426 32.992 21.6114 33.0034 20.5747L33.1823 4.41143C33.1938 3.37478 32.3625 2.52527 31.3257 2.514L28.2765 2.48087C27.2396 2.4696 26.3898 3.30084 26.3784 4.3375Z" fill="white"/>
<path d="M25.7601 38.8225C17.8937 38.7375 11.5681 32.2717 11.6546 24.4068C11.7435 16.5474 18.2093 10.216 26.0757 10.301L26.0642 11.1275C22.4799 11.0884 19.0848 12.4504 16.5231 14.9563C13.9558 17.4647 12.5218 20.8207 12.4844 24.41C12.402 31.8191 18.3644 37.907 25.7692 37.9904L25.7577 38.8168L25.7601 38.8225Z" fill="white"/>
<path d="M31.1098 42.4025C30.5632 42.638 29.9737 42.7583 29.3614 42.7482C26.9911 42.7205 25.0825 40.7708 25.1106 38.401C25.1388 36.0311 27.0893 34.1225 29.4595 34.1502C31.8298 34.1779 33.7384 36.1276 33.7102 38.4974C33.6969 39.6453 33.2371 40.7182 32.4159 41.5261C32.0314 41.9054 31.5888 42.1962 31.1098 42.4025ZM28.041 35.262C26.8182 35.7887 25.9518 37.0034 25.9372 38.4123C25.9131 40.3262 27.4586 41.898 29.3728 41.9217C30.2985 41.9304 31.1761 41.5792 31.8396 40.9327C32.5032 40.2863 32.8771 39.4172 32.8836 38.4861C32.9077 36.5722 31.3679 34.998 29.448 34.9766C28.9509 34.9703 28.4725 35.0695 28.0386 35.2564L28.041 35.262Z" fill="white"/>
<path d="M31.73 38.4752C31.7144 39.7576 30.6665 40.7833 29.3838 40.7681C28.1012 40.7528 27.0755 39.7052 27.091 38.4228C27.1066 37.1404 28.1546 36.1146 29.4372 36.1299C30.7198 36.1452 31.7455 37.1928 31.73 38.4752Z" fill="white"/>
<path d="M42.0191 50.1733L15.9287 49.8894L27.0506 41.3856L27.5545 42.0436L18.3379 49.0922L39.8634 49.3252L31.5887 41.762L32.1459 41.148L42.0191 50.1733Z" fill="white"/>
</svg>
