<svg width="120" height="43" viewBox="0 0 120 43" fill="none" xmlns="http://www.w3.org/2000/svg">
    <path d="M54.0399 9.37256H58.9184C59.1068 9.37256 59.2604 9.52667 59.2604 9.71581V12.714C59.2604 12.9031 59.1068 13.0573 58.9184 13.0573H54.0399C52.8395 13.0573 51.8625 14.038 51.8625 15.2429V19.9994C51.8625 20.1885 52.016 20.3426 52.2044 20.3426H54.9472C55.1357 20.3426 55.2892 20.4967 55.2892 20.6859V23.6841C55.2892 23.8732 55.1357 24.0273 54.9472 24.0273H52.2044C52.016 24.0273 51.8625 24.1814 51.8625 24.3706V36.0341C51.8625 36.2233 51.7089 36.3774 51.5205 36.3774H48.5334C48.3449 36.3774 48.1914 36.2233 48.1914 36.0341V15.2359C48.1914 11.9995 50.8086 9.37256 54.0399 9.37256Z" fill="#003763"/>
    <path d="M70.406 32.9379V35.9361C70.406 36.1253 70.2525 36.2794 70.0641 36.2794H67.747C64.5156 36.2794 61.8984 33.6524 61.8984 30.4091V9.54076C61.8984 9.35162 62.052 9.19751 62.2404 9.19751H65.2275C65.4159 9.19751 65.5695 9.35162 65.5695 9.54076V30.4091C65.5695 31.614 66.5466 32.5947 67.747 32.5947H70.0571C70.2525 32.5947 70.406 32.7488 70.406 32.9379Z" fill="#003763"/>
    <path d="M91.4272 26.255V27.9362C91.4272 33.001 87.3374 37.099 82.2984 37.099H81.8587C76.8128 37.099 72.73 32.994 72.73 27.9362V26.255C72.73 21.1903 76.8198 17.0923 81.8587 17.0923H82.2984C87.3374 17.0923 91.4272 21.1973 91.4272 26.255ZM87.7561 26.255C87.7561 23.2288 85.3134 20.77 82.2914 20.77H81.8517C78.8367 20.77 76.3871 23.2218 76.3871 26.255V27.9362C76.3871 30.9625 78.8298 33.4213 81.8517 33.4213H82.2914C85.3064 33.4213 87.7561 30.9695 87.7561 27.9362V26.255Z" fill="#003763"/>
    <path d="M119.163 17.8489V30.0518C119.163 33.05 117.25 35.712 114.417 36.6577L114.082 36.7697C113.405 36.9939 112.707 37.106 112.002 37.106C111.186 37.106 110.362 36.9519 109.587 36.6507L106.935 35.6069C106.824 35.5649 106.691 35.5859 106.593 35.6629C106.084 36.0692 105.512 36.4055 104.883 36.6577C104.109 36.9589 103.292 37.113 102.476 37.113C101.771 37.113 101.073 37.0009 100.396 36.7768L99.8305 36.5876C97.1295 35.6839 95.3149 33.1621 95.3149 30.304V17.8489C95.3149 17.6597 95.4685 17.5056 95.6569 17.5056H98.644C98.8324 17.5056 98.986 17.6597 98.986 17.8489V30.0518C98.986 31.4669 99.8863 32.7208 101.226 33.1691L101.561 33.2812C102.21 33.4983 102.915 33.4773 103.557 33.2251C104.688 32.7838 105.414 31.705 105.414 30.4931V17.8489C105.414 17.6597 105.567 17.5056 105.756 17.5056H108.743C108.931 17.5056 109.085 17.6597 109.085 17.8489V30.4931C109.085 30.5001 109.085 30.5072 109.085 30.5142C109.085 31.691 109.762 32.7628 110.858 33.1971L110.941 33.2321C111.576 33.4843 112.288 33.5053 112.937 33.2882L113.265 33.1761C114.605 32.7278 115.506 31.4739 115.506 30.0588V17.8489C115.506 17.6597 115.659 17.5056 115.848 17.5056H118.835C119.009 17.5056 119.163 17.6597 119.163 17.8489Z" fill="#003763"/>
    <path d="M38.6299 13.1834C37.597 10.6336 36.0686 8.27984 34.1563 6.3114C32.251 4.33595 29.9479 2.73177 27.4005 1.70902C24.8461 0.672263 22.0754 0.336016 19.3814 0.427083C16.6735 0.53216 14.0005 1.03653 11.467 1.92618C8.93359 2.80883 6.49786 3.98569 4.31339 5.51982C6.60255 4.15382 9.05922 3.08904 11.6066 2.3605C14.154 1.63897 16.7782 1.19765 19.4023 1.20465C22.0195 1.19765 24.6367 1.65298 27.0166 2.66873C29.4035 3.67747 31.5461 5.23261 33.3118 7.124C36.8572 10.9138 38.8463 16.0836 38.8952 21.2604C38.951 26.4372 36.8084 31.5649 33.1443 35.1936C31.3228 37.0079 29.1592 38.479 26.7584 39.3757C24.3645 40.2863 21.7822 40.6856 19.2279 40.5595C16.6735 40.4334 14.154 39.7609 11.8997 38.5771C9.65245 37.3862 7.67036 35.6839 6.12099 33.6525C4.57161 31.628 3.45495 29.2602 2.92453 26.7734C2.38714 24.2936 2.42901 21.6737 3.07109 19.2359C3.7062 16.7911 5.01828 14.5705 6.81891 12.7982C8.60557 11.0118 10.8249 9.63884 13.1909 8.72817C15.5638 7.82451 18.1182 7.4042 20.6377 7.5443C23.1432 7.70542 25.6138 8.45497 27.6657 9.849C29.7245 11.236 31.3646 13.2325 32.3627 15.5232C33.3607 17.8068 33.7306 20.3707 33.4235 22.8505C32.8512 27.8172 29.3477 32.3145 24.7344 34.1919C22.4453 35.1446 19.8909 35.4318 17.504 34.9064C15.1102 34.374 12.8698 33.1131 11.2507 31.2707C9.61755 29.4354 8.5288 27.0886 8.20776 24.6579C7.8937 22.2271 8.43807 19.7403 9.68036 17.6177C12.1719 13.3165 17.1341 11.0889 21.9707 12.3779C25.0764 13.2045 28.2101 15.6142 29.229 18.7665C29.7315 20.3217 29.7943 22.157 29.0894 23.6491C29.236 20.6719 28.6846 18.7385 27.4354 17.4286C23.7573 13.5757 17.6645 13.4566 13.826 17.1484C12.6256 18.3042 11.7881 19.6912 11.3205 21.1763C10.2876 24.4407 11.0134 28.1604 13.5468 30.8084C16.1082 33.4843 19.8281 34.353 23.1502 33.4003C23.3595 33.3582 23.5689 33.3022 23.7783 33.2462C25.209 32.8329 26.5071 32.0623 27.5959 31.1096C31.1762 27.9783 32.8023 22.9206 31.239 18.3392C30.8761 17.2674 30.3527 16.2517 29.6896 15.327C27.9867 12.9663 25.537 11.166 22.7454 10.3464C19.9746 9.51975 16.8689 9.63184 14.1959 10.8297C11.5229 11.9996 9.29651 14.0451 7.85182 16.5459C7.13297 17.7998 6.59557 19.1658 6.30245 20.5879C6.00234 22.0169 5.95349 23.495 6.13495 24.9311C6.5188 27.8032 7.79599 30.5142 9.71526 32.6647C10.6714 33.7435 11.816 34.6612 13.0653 35.3757C14.3076 36.0903 15.6685 36.6156 17.0783 36.9169C19.8979 37.5333 22.8849 37.176 25.5091 36.0692C30.7854 33.8976 34.7356 28.8049 35.3846 23.0957C35.7266 20.2656 35.3009 17.3445 34.1493 14.7386C33.0047 12.1257 31.1134 9.84199 28.7474 8.25182C26.3745 6.64765 23.5549 5.80703 20.7563 5.63891C17.9437 5.48479 15.1311 5.97515 12.5348 6.98389C9.93859 7.99964 7.53078 9.51275 5.54172 11.5092C4.55068 12.5109 3.67828 13.6318 2.96641 14.8647C2.25453 16.0906 1.73109 17.4286 1.36818 18.7876C0.663281 21.5266 0.642344 24.4057 1.24953 27.1447C1.85672 29.8907 3.09203 32.4686 4.80193 34.6752C6.50484 36.8818 8.67536 38.7242 11.153 40.0131C13.6306 41.2951 16.3873 42.0026 19.1511 42.1287C21.9218 42.2408 24.7065 41.7924 27.2958 40.7907C29.892 39.796 32.2301 38.1918 34.1772 36.2303C38.0856 32.3145 40.3468 26.7874 40.2561 21.2464C40.2142 18.4863 39.6559 15.7403 38.6299 13.1834Z" fill="url(#paint0_linear_102_2185)"/>
    <defs>
        <linearGradient id="paint0_linear_102_2185" x1="20.5371" y1="0.412842" x2="20.5371" y2="42.1455" gradientUnits="userSpaceOnUse">
            <stop offset="0.130208" stop-color="#21A79E"/>
            <stop offset="0.796875" stop-color="#4D89BB"/>
        </linearGradient>
    </defs>
</svg>
