<svg width="25" height="24" viewBox="0 0 25 24" fill="none" xmlns="http://www.w3.org/2000/svg">
<g clip-path="url(#clip0_102_1994)">
<path d="M12.5 13.68L15.98 17.16C16.2 17.38 16.48 17.49 16.82 17.49C17.16 17.49 17.44 17.38 17.66 17.16C17.88 16.94 17.99 16.66 17.99 16.32C17.99 15.98 17.88 15.7 17.66 15.48L14.18 12L17.66 8.52C17.88 8.3 17.99 8.02 17.99 7.68C17.99 7.34 17.88 7.06 17.66 6.84C17.44 6.62 17.16 6.51 16.82 6.51C16.48 6.51 16.2 6.62 15.98 6.84L12.5 10.32L9.02 6.84C8.8 6.62 8.52 6.51 8.18 6.51C7.84 6.51 7.56 6.62 7.34 6.84C7.12 7.06 7.01 7.34 7.01 7.68C7.01 8.02 7.12 8.3 7.34 8.52L10.82 12L7.34 15.48C7.12 15.7 7.01 15.98 7.01 16.32C7.01 16.66 7.12 16.94 7.34 17.16C7.56 17.38 7.84 17.49 8.18 17.49C8.52 17.49 8.8 17.38 9.02 17.16L12.5 13.68ZM12.5 24C10.84 24 9.28 23.6848 7.82 23.0544C6.36 22.424 5.09 21.5692 4.01 20.49C2.93 19.41 2.0752 18.14 1.4456 16.68C0.816 15.22 0.5008 13.66 0.5 12C0.5 10.34 0.8152 8.78 1.4456 7.32C2.076 5.86 2.9308 4.59 4.01 3.51C5.09 2.43 6.36 1.5752 7.82 0.9456C9.28 0.316 10.84 0.0008 12.5 0C14.16 0 15.72 0.3152 17.18 0.9456C18.64 1.576 19.91 2.4308 20.99 3.51C22.07 4.59 22.9252 5.86 23.5556 7.32C24.186 8.78 24.5008 10.34 24.5 12C24.5 13.66 24.1848 15.22 23.5544 16.68C22.924 18.14 22.0692 19.41 20.99 20.49C19.91 21.57 18.64 22.4252 17.18 23.0556C15.72 23.686 14.16 24.0008 12.5 24ZM12.5 21.6C15.18 21.6 17.45 20.67 19.31 18.81C21.17 16.95 22.1 14.68 22.1 12C22.1 9.32 21.17 7.05 19.31 5.19C17.45 3.33 15.18 2.4 12.5 2.4C9.82 2.4 7.55 3.33 5.69 5.19C3.83 7.05 2.9 9.32 2.9 12C2.9 14.68 3.83 16.95 5.69 18.81C7.55 20.67 9.82 21.6 12.5 21.6Z" fill="#B73737"/>
</g>
<defs>
<clipPath id="clip0_102_1994">
<rect width="24" height="24" fill="white" transform="translate(0.5)"/>
</clipPath>
</defs>
</svg>
