<svg width="40" height="38" viewBox="0 0 40 38" fill="none" xmlns="http://www.w3.org/2000/svg">
<path d="M14.73 22.221C13.6414 22.2969 12.6337 22.3162 11.6571 22.4063C5.65025 22.948 0.225046 18.0865 0.28185 12.0691C0.305953 9.14663 1.78602 6.78929 3.99824 4.89203C6.94312 2.39958 10.4707 1.2767 14.269 0.815941C20.1468 0.0775061 25.9077 0.466404 31.5103 2.46498C34.6308 3.58818 37.304 5.32934 38.7077 8.51272C40.236 11.9791 39.793 15.296 37.6371 18.3291C35.4157 21.4542 32.3194 22.979 28.4434 22.7353C27.3534 22.6641 26.2676 22.5065 25.0755 22.3956C25.1764 25.0734 25.3725 27.5829 27.0164 29.7748C27.537 30.4753 27.9468 31.3086 28.209 32.1433C28.9812 34.7592 26.8607 37.7768 24.1072 37.8222C21.1706 37.8844 18.2127 37.8505 15.2791 37.6794C11.9991 37.4911 10.1443 33.9567 11.6033 30.9755C11.7781 30.6036 11.9784 30.2416 12.2454 29.9347C14.2008 27.7912 14.5839 25.1547 14.7556 22.2309L14.73 22.221Z" fill="white"/>
</svg>
