<svg width="41" height="50" viewBox="0 0 41 50" fill="none" xmlns="http://www.w3.org/2000/svg">
<path d="M3.67542 7.52552C2.65844 7.41231 1.50623 7.52013 0.830052 8.28029C0.105188 9.09435 0.207968 10.4044 0.808415 11.3101C1.40886 12.2158 2.4042 12.7873 3.39953 13.224C5.87705 14.313 8.57095 14.7874 11.1675 15.5637C13.7586 16.3401 16.3659 17.5046 18.0591 19.6071C13.9263 19.0033 9.67448 19.1974 5.6174 20.1732C4.68698 20.3996 3.72951 20.6799 3.02087 21.3215C2.31224 21.963 1.92276 23.0521 2.36633 23.8985C2.71254 24.5616 3.45904 24.912 4.18931 25.0791C6.42882 25.5913 8.74405 24.7826 10.8321 23.823C12.9147 22.8634 14.992 21.7151 17.2747 21.5102C19.5629 21.2999 22.1703 22.3512 22.8897 24.5238C21.0505 24.6856 19.2167 24.8473 17.3775 25.0037C15.587 25.16 13.764 25.3217 12.0979 25.9956C10.4318 26.6641 8.91175 27.9311 8.38703 29.6454C8.10033 30.5781 8.1382 31.6402 8.66291 32.4596C9.18763 33.2791 10.2587 33.7751 11.1891 33.4732C12.3143 33.112 12.8282 31.8666 13.4773 30.88C15.3327 28.082 18.8759 27.0307 22.1324 26.1735C22.7112 26.0226 23.3171 25.8716 23.8905 26.0334C24.3503 26.1628 24.7343 26.4808 25.0914 26.7935C26.606 28.1197 28.0016 29.5861 29.262 31.155C27.3958 32.0769 25.1941 31.9097 23.1169 31.7696C21.0397 31.6294 18.8056 31.5647 17.0313 32.6591C15.257 33.7535 14.3482 36.4491 15.7817 37.9586C16.6364 38.8589 18.0375 39.053 19.2438 38.7619C20.4501 38.4708 21.5103 37.7753 22.5435 37.0906C24.4098 35.8561 26.2814 34.6161 28.1477 33.3815C28.8455 32.9179 29.6677 32.4327 30.4738 32.6699C30.8957 32.7939 31.2311 33.0958 31.5448 33.4085C35.9048 37.7214 37.4736 44.0183 38.8692 49.9809C39.7077 50.1696 40.016 48.9188 39.8916 48.0724C39.0747 42.5357 36.8623 37.2092 33.5084 32.7184C35.4775 32.1577 37.0408 30.5943 38.0415 28.8098C39.0423 27.0307 39.5616 25.0252 40.0755 23.0467C40.4542 21.5803 40.611 19.6071 39.2424 18.9602C37.928 18.3402 36.489 19.6125 35.8507 20.9118C34.4551 23.7421 34.612 27.1008 33.4489 30.0282C33.3191 30.3517 33.1676 30.6805 32.8972 30.9016C31.9289 31.7049 30.5603 30.5943 29.8084 29.5807C32.4969 24.9012 33.4598 19.2621 32.4752 13.9626C32.2967 12.9868 31.9505 11.8924 31.0471 11.4772C29.6948 10.8573 28.2397 12.1997 27.6068 13.5421C25.4159 18.1785 27.1524 23.6181 28.8996 28.4378C27.4174 27.6022 26.13 26.4269 25.1671 25.0306C24.8858 24.6263 24.637 24.2004 24.4693 23.7367C24.2042 22.9981 24.1609 22.2056 24.1177 21.4185C23.8364 16.3994 23.1656 11.3964 22.1324 6.47964C21.9593 5.66018 21.6618 4.70595 20.8666 4.43639C20.1363 4.1884 19.3195 4.70056 18.9679 5.38523C18.6163 6.06991 18.6217 6.87319 18.6541 7.64413C18.8922 12.9005 20.2607 18.103 22.6463 22.7987C22.0513 21.2298 20.3906 20.3942 19.1518 19.2621C17.1936 17.4722 16.2415 14.809 15.9602 12.1727C15.6789 9.54182 15.9927 6.88937 16.1928 4.2477C16.2686 3.27729 16.3173 2.26375 15.917 1.37421C15.5167 0.484672 14.5159 -0.210788 13.5801 0.0587703C12.7362 0.301372 12.2656 1.18552 12.0114 2.02115C10.659 6.44729 13.05 9.80059 13.9263 13.8925C10.4318 11.5797 8.27343 8.04307 3.67542 7.52552Z" fill="white"/>
</svg>
