<svg width="24" height="25" viewBox="0 0 24 25" fill="none" xmlns="http://www.w3.org/2000/svg">
<path d="M8.39875 9.22409L10.8 1.34009L13.2024 9.22529L20.4 11.8569L13.2576 14.6937L10.8 22.9401L8.34235 14.6937L1.19995 11.8569L8.39875 9.22409Z" stroke="#003763" stroke-width="2.4" stroke-linejoin="round"/>
<path d="M20.5019 16.4289C20.4989 16.4041 20.4869 16.3813 20.468 16.3649C20.4492 16.3485 20.4249 16.3396 20.3999 16.3401C20.3749 16.3396 20.3506 16.3485 20.3318 16.3649C20.313 16.3813 20.3009 16.4041 20.2979 16.4289C20.0591 18.8217 19.8839 19.5213 17.4923 19.7469C17.4674 19.7487 17.444 19.7598 17.4269 19.7781C17.4098 19.7963 17.4001 19.8203 17.3999 19.8453C17.3999 19.8969 17.4395 19.9389 17.4923 19.9437C19.8503 20.1657 20.0555 21.0189 20.2979 23.4513C20.3011 23.476 20.3133 23.4987 20.3321 23.515C20.3509 23.5314 20.375 23.5403 20.3999 23.5401C20.4527 23.5401 20.4959 23.5017 20.5019 23.4513C20.7443 21.0189 20.9483 20.1657 23.3075 19.9437C23.3324 19.9419 23.3558 19.9308 23.3729 19.9125C23.39 19.8943 23.3997 19.8703 23.3999 19.8453C23.3997 19.8203 23.39 19.7963 23.3729 19.7781C23.3558 19.7598 23.3324 19.7487 23.3075 19.7469C20.9159 19.5213 20.7395 18.8229 20.5019 16.4289Z" fill="#003763" stroke="#003763" stroke-width="1.2"/>
<path d="M10.8 24.1401C10.272 24.1401 9.804 23.7921 9.648 23.2881L7.356 15.5961L0.756 12.9681C0.3 12.7881 0 12.3441 0 11.8401C0 11.3361 0.324 10.9041 0.792 10.7241L7.428 8.30014L9.648 0.992137C9.804 0.488137 10.272 0.140137 10.8 0.140137C11.328 0.140137 11.796 0.488137 11.952 0.992137L14.184 8.30014L20.82 10.7241C21.288 10.8921 21.6 11.3361 21.612 11.8401C21.624 12.3441 21.312 12.7881 20.856 12.9681L14.256 15.5841L11.964 23.2761C11.808 23.7801 11.34 24.1281 10.812 24.1281L10.8 24.1401ZM4.572 11.9001L8.784 13.5801C9.12 13.7121 9.384 14.0001 9.492 14.3481L10.8 18.7401L12.108 14.3481C12.216 14.0001 12.468 13.7121 12.816 13.5801L17.028 11.9001L12.78 10.3521C12.432 10.2201 12.156 9.93214 12.048 9.57214L10.8 5.45614L9.552 9.57214C9.444 9.93214 9.168 10.2201 8.82 10.3521L4.572 11.9001ZM20.4 24.1401C20.04 24.1401 19.74 23.8641 19.704 23.5041C19.464 21.1641 19.368 20.7201 17.436 20.5401C17.2625 20.5238 17.1013 20.4434 16.9838 20.3148C16.8662 20.1862 16.8007 20.0184 16.8 19.8441C16.8 19.4841 17.076 19.1841 17.436 19.1481C19.368 18.9681 19.476 18.6681 19.704 16.3641C19.7262 16.1953 19.8091 16.0402 19.9371 15.9279C20.0652 15.8156 20.2297 15.7537 20.4 15.7537C20.5703 15.7537 20.7348 15.8156 20.8629 15.9279C20.9909 16.0402 21.0738 16.1953 21.096 16.3641C21.324 18.6681 21.432 18.9681 23.364 19.1481C23.724 19.1841 24 19.4841 24 19.8441C24 20.2041 23.736 20.5041 23.376 20.5401C21.444 20.7201 21.336 21.1641 21.096 23.5041C21.06 23.8641 20.76 24.1281 20.4 24.1281V24.1401Z" fill="#003763"/>
</svg>
