<svg width="24" height="25" viewBox="0 0 24 25" fill="none" xmlns="http://www.w3.org/2000/svg">
<g clip-path="url(#clip0_164_376)">
<path d="M13.9533 1.76748L12.2609 10.6591L18.3918 10.6798L10.0466 22.7337L11.7389 12.9515L5.60843 12.9301L13.9533 1.76748ZM13.9544 0.267503C13.9139 0.267503 13.8735 0.268979 13.8337 0.271956C13.569 0.293354 13.3934 0.381854 13.1853 0.521729C13.0681 0.599856 12.9625 0.694022 12.8714 0.801479C12.8441 0.833731 12.8183 0.867269 12.7942 0.901979L4.3893 12.0256C4.05743 12.4805 4.00868 13.0809 4.26368 13.5826C4.5183 14.0844 5.03318 14.4024 5.59755 14.4065L9.9273 14.438L8.56605 22.4581C8.43668 23.1474 8.80418 23.8344 9.45105 24.1111C9.63904 24.1919 9.84154 24.2335 10.0462 24.2334C10.5175 24.2334 10.9049 24.0129 11.1956 23.6146L19.6109 11.5606C19.9428 11.1057 19.9912 10.5046 19.7366 10.0036C19.4819 9.50183 18.9671 9.18381 18.4027 9.17971L14.0729 9.17221L15.4196 2.12033C15.4481 2.00488 15.4625 1.88638 15.4623 1.76746C15.4623 0.955956 14.8162 0.294456 14.0077 0.268206C13.9897 0.267456 13.9721 0.267456 13.9544 0.267456L13.9544 0.267503Z" fill="#003763"/>
</g>
<defs>
<clipPath id="clip0_164_376">
<rect width="24" height="24" fill="white" transform="translate(0 0.25061)"/>
</clipPath>
</defs>
</svg>
