<svg width="24" height="25" viewBox="0 0 24 25" fill="none" xmlns="http://www.w3.org/2000/svg">
<g clip-path="url(#clip0_164_420)">
<path d="M12.9999 3.25061C16.8799 3.25061 19.9999 6.39061 19.9999 10.2506C19.9999 13.0506 18.3699 15.4406 15.9999 16.5606V21.2506H8.99992V18.2506H7.99992C6.88992 18.2506 5.99992 17.3606 5.99992 16.2506V13.2506H4.49992C4.07992 13.2506 3.83992 12.7506 4.07992 12.4406L5.99992 9.91061C6.08802 8.1139 6.86415 6.42 8.16739 5.18006C9.47064 3.94011 11.2011 3.24922 12.9999 3.25061ZM12.9999 1.25061C8.40992 1.25061 4.60992 4.67061 4.05992 9.15061L2.49992 11.2506H2.46992L2.44992 11.2806C1.89992 12.0406 1.82992 13.0406 2.25992 13.8706C2.61992 14.5606 3.25992 15.0406 3.99992 15.1906V16.2506C3.99992 18.1006 5.27992 19.6706 6.99992 20.1206V23.2506H17.9999V17.7506C20.4999 16.0806 21.9999 13.3106 21.9999 10.2506C21.9999 5.28061 17.9599 1.25061 12.9999 1.25061ZM17.3299 9.55061L15.3699 10.0606L16.8099 11.5206C17.1599 11.8606 17.1599 12.4406 16.8099 12.7906C16.4599 13.1406 15.8799 13.1406 15.5399 12.7906L14.0899 11.3506L13.5699 13.3106C13.4499 13.8006 12.9599 14.0706 12.4999 13.9506C12.3835 13.9214 12.274 13.8695 12.1777 13.7978C12.0814 13.7262 12.0002 13.6361 11.9389 13.533C11.8776 13.4298 11.8372 13.3155 11.8202 13.1967C11.8032 13.0779 11.8099 12.9568 11.8399 12.8406L12.3699 10.8806L10.4099 11.4106C10.2937 11.4406 10.1727 11.4473 10.0538 11.4303C9.93502 11.4133 9.82073 11.373 9.71756 11.3116C9.61438 11.2503 9.52436 11.1691 9.45269 11.0728C9.38101 10.9766 9.32909 10.867 9.29992 10.7506C9.17992 10.3006 9.45992 9.80061 9.93992 9.68061L11.8999 9.16061L10.4599 7.71061C10.3095 7.53878 10.23 7.31619 10.2375 7.08793C10.2451 6.85968 10.3392 6.64283 10.5007 6.48135C10.6621 6.31986 10.879 6.2258 11.1072 6.21824C11.3355 6.21067 11.5581 6.29017 11.7299 6.44061L13.1899 7.88061L13.6999 5.92061C13.8199 5.43061 14.3199 5.15061 14.7899 5.28061C15.2799 5.41061 15.5599 5.90061 15.4299 6.38061L14.8999 8.35061L16.8699 7.82061C17.3499 7.69061 17.8399 7.97061 17.9699 8.46061C18.0999 8.93061 17.8199 9.43061 17.3299 9.55061Z" fill="#003763"/>
</g>
<defs>
<clipPath id="clip0_164_420">
<rect width="24" height="24" fill="white" transform="translate(0 0.25061)"/>
</clipPath>
</defs>
</svg>
