<svg width="24" height="25" viewBox="0 0 24 25" fill="none" xmlns="http://www.w3.org/2000/svg">
<g clip-path="url(#clip0_164_414)">
<path d="M12.9996 4.75067C13.0033 4.12505 12.7723 3.52077 12.3522 3.05716C11.9321 2.59355 11.3535 2.3043 10.7305 2.24653C10.1075 2.18875 9.48556 2.36665 8.98737 2.7451C8.48919 3.12355 8.151 3.67503 8.03959 4.29067C7.70995 4.35243 7.3961 4.47988 7.11673 4.66545C6.83736 4.85101 6.59818 5.09089 6.41344 5.37081C6.2287 5.65072 6.10217 5.96494 6.04138 6.29477C5.98059 6.6246 5.98678 6.96328 6.05959 7.29067C5.60825 7.37079 5.18763 7.57346 4.84372 7.87653C4.4998 8.17959 4.24583 8.57138 4.10958 9.00906C3.97332 9.44673 3.96002 9.91345 4.07113 10.3582C4.18225 10.8029 4.41349 11.2085 4.73959 11.5307C4.19113 11.7839 3.73188 12.1968 3.42196 12.7153C3.11204 13.2339 2.96588 13.8339 3.00263 14.4369C3.03937 15.0398 3.25729 15.6177 3.62787 16.0948C3.99846 16.5718 4.50444 16.9259 5.07959 17.1107C4.96978 17.5255 4.9686 17.9617 5.07618 18.3771C5.18376 18.7925 5.39646 19.1733 5.69382 19.4827C5.99118 19.7921 6.36319 20.0198 6.77403 20.1438C7.18487 20.2678 7.6207 20.2839 8.03959 20.1907C8.14283 20.7681 8.4458 21.2908 8.89551 21.6674C9.34522 22.044 9.91303 22.2504 10.4996 22.2507C11.7096 22.2507 12.9996 21.5107 12.9996 19.7507M12.9996 4.75067C12.9959 4.12505 13.2269 3.52077 13.647 3.05716C14.0671 2.59355 14.6457 2.3043 15.2687 2.24653C15.8916 2.18875 16.5136 2.36665 17.0118 2.7451C17.51 3.12355 17.8482 3.67503 17.9596 4.29067C18.2892 4.35243 18.6031 4.47988 18.8825 4.66545C19.1618 4.85101 19.401 5.09089 19.5857 5.37081C19.7705 5.65072 19.897 5.96494 19.9578 6.29477C20.0186 6.6246 20.0124 6.96328 19.9396 7.29067C20.3909 7.37079 20.8116 7.57346 21.1555 7.87653C21.4994 8.17959 21.7534 8.57138 21.8896 9.00906C22.0259 9.44673 22.0392 9.91345 21.9281 10.3582C21.8169 10.8029 21.5857 11.2085 21.2596 11.5307C21.8081 11.7839 22.2673 12.1968 22.5772 12.7153C22.8871 13.2339 23.0333 13.8339 22.9966 14.4369C22.9598 15.0398 22.7419 15.6177 22.3713 16.0948C22.0007 16.5718 21.4947 16.9259 20.9196 17.1107C21.0294 17.5255 21.0306 17.9617 20.923 18.3771C20.8154 18.7925 20.6027 19.1733 20.3054 19.4827C20.008 19.7921 19.636 20.0198 19.2252 20.1438C18.8143 20.2678 18.3785 20.2839 17.9596 20.1907C17.8564 20.7681 17.5534 21.2908 17.1037 21.6674C16.654 22.044 16.0862 22.2504 15.4996 22.2507C14.2896 22.2507 12.9996 21.5107 12.9996 19.7507M12.9996 4.75067V5.25067M12.9996 19.7507V19.2507" stroke="#003763" stroke-width="2" stroke-linecap="round" stroke-linejoin="round"/>
<path d="M12.9995 14.2506C14.1041 14.2506 14.9995 13.3552 14.9995 12.2506C14.9995 11.146 14.1041 10.2506 12.9995 10.2506C11.8949 10.2506 10.9995 11.146 10.9995 12.2506C10.9995 13.3552 11.8949 14.2506 12.9995 14.2506Z" stroke="#003763" stroke-width="2" stroke-linecap="round" stroke-linejoin="round"/>
<path d="M12.9997 9.25061V10.2506M12.9997 14.2506V15.2506M15.5997 10.7506L14.7297 11.2506M11.2697 13.2506L10.3997 13.7506M15.5997 13.7506L14.7297 13.2506M11.2697 11.2506L10.3997 10.7506" stroke="#003763" stroke-width="2" stroke-linecap="round" stroke-linejoin="round"/>
</g>
<defs>
<clipPath id="clip0_164_414">
<rect width="24" height="24" fill="white" transform="translate(0 0.25061)"/>
</clipPath>
</defs>
</svg>
