<svg width="50" height="51" viewBox="0 0 50 51" fill="none" xmlns="http://www.w3.org/2000/svg">
<ellipse cx="25.0001" cy="25.7197" rx="25.0001" ry="25" fill="url(#paint0_linear_146_366)"/>
<path fill-rule="evenodd" clip-rule="evenodd" d="M27.2719 14.1638C27.6069 14.1638 27.9282 14.2969 28.1651 14.5338C28.402 14.7707 28.535 15.092 28.535 15.427C28.5357 16.5915 28.9383 17.7201 29.6747 18.6222C30.4112 19.5244 31.4364 20.1447 32.5772 20.3786C32.9055 20.4456 33.1937 20.6402 33.3785 20.9198C33.5633 21.1993 33.6295 21.5408 33.5625 21.8691C33.4955 22.1974 33.3008 22.4856 33.0212 22.6704C32.7417 22.8552 32.4002 22.9213 32.0719 22.8543C30.7557 22.5853 29.5349 21.9706 28.535 21.0733V31.848C28.535 33.0972 28.1646 34.3183 27.4706 35.3569C26.7766 36.3955 25.7902 37.205 24.6362 37.6831C23.4821 38.1611 22.2122 38.2862 20.987 38.0425C19.7619 37.7988 18.6365 37.1972 17.7532 36.314C16.8699 35.4307 16.2684 34.3053 16.0247 33.0802C15.781 31.855 15.9061 30.5851 16.3841 29.4311C16.8621 28.277 17.6716 27.2906 18.7103 26.5966C19.7489 25.9027 20.97 25.5322 22.2192 25.5322C22.5542 25.5322 22.8755 25.6653 23.1124 25.9022C23.3493 26.1391 23.4824 26.4604 23.4824 26.7954C23.4824 27.1304 23.3493 27.4517 23.1124 27.6886C22.8755 27.9255 22.5542 28.0586 22.2192 28.0586C21.4697 28.0586 20.737 28.2808 20.1138 28.6972C19.4907 29.1136 19.0049 29.7054 18.7181 30.3979C18.4313 31.0903 18.3563 31.8522 18.5025 32.5873C18.6487 33.3224 19.0096 33.9976 19.5396 34.5276C20.0696 35.0576 20.7448 35.4185 21.4799 35.5647C22.215 35.7109 22.9769 35.6359 23.6694 35.349C24.3618 35.0622 24.9536 34.5765 25.37 33.9533C25.7864 33.3302 26.0087 32.5975 26.0087 31.848V15.427C26.0087 15.092 26.1418 14.7707 26.3787 14.5338C26.6156 14.2969 26.9368 14.1638 27.2719 14.1638Z" fill="white"/>
<defs>
<linearGradient id="paint0_linear_146_366" x1="25.0001" y1="0.719727" x2="25.0001" y2="50.7197" gradientUnits="userSpaceOnUse">
<stop offset="0.130208" stop-color="#21A79E"/>
<stop offset="0.796875" stop-color="#4D89BB"/>
</linearGradient>
</defs>
</svg>
