<svg width="72" height="50" viewBox="0 0 72 50" fill="none" xmlns="http://www.w3.org/2000/svg">
<path fill-rule="evenodd" clip-rule="evenodd" d="M27.7408 7.87836C27.2954 9.77295 26.0067 11.344 24.2909 12.1768L33.3423 39.8404C33.6658 39.7769 34.0001 39.7437 34.3423 39.7437C37.1841 39.7437 39.4879 42.0396 39.4879 44.8719C39.4879 47.7041 37.1841 50.0001 34.3423 50.0001C31.5004 50.0001 29.1967 47.7041 29.1967 44.8719C29.1967 42.8309 30.393 41.0683 32.125 40.2429L23.0865 12.6185C22.5725 12.7504 22.0336 12.8205 21.4783 12.8205C20.6808 12.8205 19.9173 12.6759 19.2126 12.4115L10.3476 31.9094C12.0212 33.0668 13.117 34.9956 13.117 37.1795C13.117 40.7198 10.2373 43.5897 6.68496 43.5897C3.13266 43.5897 0.252944 40.7198 0.252944 37.1795C0.252944 33.6392 3.13266 30.7692 6.68496 30.7692C7.58597 30.7692 8.44371 30.9539 9.22216 31.2872L18.0627 11.843C16.2508 10.7092 15.0463 8.6999 15.0463 6.41026C15.0463 2.86997 17.926 0 21.4783 0C25.0306 0 27.9103 2.86997 27.9103 6.41026C27.9103 6.47461 27.9093 6.53874 27.9075 6.60263L57.1817 13.2582C58.0867 10.4031 60.7656 8.33337 63.9295 8.33337C67.8371 8.33337 71.0047 11.4903 71.0047 15.3847C71.0047 19.279 67.8371 22.4359 63.9295 22.4359C60.022 22.4359 56.8543 19.279 56.8543 15.3847C56.8543 15.0883 56.8726 14.7963 56.9083 14.5096L27.7408 7.87836Z" fill="white"/>
</svg>
